<mxfile host="app.diagrams.net" modified="2022-07-25T18:51:40.272Z" agent="5.0 (X11; CrOS x86_64 14816.99.0) AppleWebKit/537.36 (KHTML, like Gecko) Chrome/103.0.0.0 Safari/537.36" etag="LkAAb9Dkmx1bwe3_ZTqA" version="20.0.3" type="github">
  <diagram id="f2ft8yqFwmNnthZ0CB6P" name="Page-1">
    <mxGraphModel dx="2063" dy="1183" grid="0" gridSize="10" guides="1" tooltips="1" connect="1" arrows="1" fold="1" page="1" pageScale="1" pageWidth="1169" pageHeight="827" background="#FFFFFF" math="0" shadow="1">
      <root>
        <mxCell id="0" />
        <mxCell id="1" parent="0" />
        <mxCell id="B4CApN_U5xcei9GQMjOe-3" value="" style="edgeStyle=orthogonalEdgeStyle;rounded=1;orthogonalLoop=1;jettySize=auto;html=1;startArrow=classic;startFill=1;sketch=1;" parent="1" source="B4CApN_U5xcei9GQMjOe-1" target="B4CApN_U5xcei9GQMjOe-2" edge="1">
          <mxGeometry relative="1" as="geometry" />
        </mxCell>
        <mxCell id="B4CApN_U5xcei9GQMjOe-1" value="&lt;font style=&quot;font-size: 27px;&quot;&gt;Internet / Clearnet &lt;br&gt;Lightning&lt;/font&gt;" style="ellipse;shape=cloud;whiteSpace=wrap;html=1;rounded=1;sketch=1;" parent="1" vertex="1">
          <mxGeometry x="85" y="45" width="361" height="222" as="geometry" />
        </mxCell>
        <mxCell id="B4CApN_U5xcei9GQMjOe-5" value="" style="edgeStyle=orthogonalEdgeStyle;rounded=1;orthogonalLoop=1;jettySize=auto;html=1;startArrow=none;startFill=0;exitX=1;exitY=1;exitDx=0;exitDy=0;entryX=0;entryY=1;entryDx=0;entryDy=0;sketch=1;" parent="1" source="B4CApN_U5xcei9GQMjOe-2" target="B4CApN_U5xcei9GQMjOe-4" edge="1">
          <mxGeometry relative="1" as="geometry" />
        </mxCell>
        <mxCell id="B4CApN_U5xcei9GQMjOe-2" value="&lt;font style=&quot;font-size: 27px;&quot;&gt;VPS running LNbits on SSL (443)&lt;/font&gt;" style="whiteSpace=wrap;html=1;rounded=1;sketch=1;" parent="1" vertex="1">
          <mxGeometry x="141" y="333" width="249" height="140" as="geometry" />
        </mxCell>
        <mxCell id="B4CApN_U5xcei9GQMjOe-7" value="" style="edgeStyle=orthogonalEdgeStyle;rounded=1;orthogonalLoop=1;jettySize=auto;html=1;startArrow=none;startFill=0;exitX=1;exitY=1;exitDx=0;exitDy=0;entryX=0;entryY=1;entryDx=0;entryDy=0;sketch=1;" parent="1" source="B4CApN_U5xcei9GQMjOe-4" target="B4CApN_U5xcei9GQMjOe-6" edge="1">
          <mxGeometry relative="1" as="geometry" />
        </mxCell>
        <mxCell id="B4CApN_U5xcei9GQMjOe-4" value="&lt;font style=&quot;font-size: 27px;&quot;&gt;Wireguard Tunnel&lt;br&gt;(51820)&lt;/font&gt;" style="whiteSpace=wrap;html=1;rounded=1;sketch=1;" parent="1" vertex="1">
          <mxGeometry x="470" y="333" width="242" height="142" as="geometry" />
        </mxCell>
        <mxCell id="B4CApN_U5xcei9GQMjOe-12" value="" style="edgeStyle=orthogonalEdgeStyle;shape=link;rounded=1;orthogonalLoop=1;jettySize=auto;html=1;shadow=0;dashed=1;startArrow=classic;startFill=1;sketch=1;entryX=0.5;entryY=0;entryDx=0;entryDy=0;" parent="1" target="B4CApN_U5xcei9GQMjOe-11" edge="1">
          <mxGeometry relative="1" as="geometry">
            <mxPoint x="267" y="477" as="sourcePoint" />
          </mxGeometry>
        </mxCell>
        <mxCell id="B4CApN_U5xcei9GQMjOe-6" value="&lt;font style=&quot;font-size: 27px;&quot;&gt;LND Node 1&lt;br&gt;(9735, 8080)&lt;/font&gt;" style="whiteSpace=wrap;html=1;rounded=1;sketch=1;" parent="1" vertex="1">
          <mxGeometry x="868" y="333" width="230" height="141" as="geometry" />
        </mxCell>
        <mxCell id="B4CApN_U5xcei9GQMjOe-8" value="&lt;font style=&quot;font-size: 27px;&quot; color=&quot;#4d4d4d&quot;&gt;LND Node 2&lt;br&gt;(9736)&lt;/font&gt;" style="whiteSpace=wrap;html=1;rounded=1;sketch=1;" parent="1" vertex="1">
          <mxGeometry x="478" y="610" width="226" height="137" as="geometry" />
        </mxCell>
        <mxCell id="B4CApN_U5xcei9GQMjOe-11" value="&lt;font style=&quot;font-size: 27px;&quot;&gt;&lt;font style=&quot;font-size: 27px;&quot; color=&quot;#1a1a1a&quot;&gt;Tor&amp;nbsp;&lt;/font&gt;&lt;span style=&quot;color: rgb(26, 26, 26);&quot;&gt;Bitcoind / Lightning&lt;/span&gt;&lt;/font&gt;" style="ellipse;whiteSpace=wrap;html=1;rounded=1;sketch=1;" parent="1" vertex="1">
          <mxGeometry x="156" y="542" width="221" height="218" as="geometry" />
        </mxCell>
        <mxCell id="B4CApN_U5xcei9GQMjOe-15" value="" style="edgeStyle=orthogonalEdgeStyle;rounded=1;orthogonalLoop=1;jettySize=auto;html=1;startArrow=none;startFill=0;entryX=1;entryY=0;entryDx=0;entryDy=0;exitX=0;exitY=0;exitDx=0;exitDy=0;sketch=1;" parent="1" source="B4CApN_U5xcei9GQMjOe-6" target="B4CApN_U5xcei9GQMjOe-4" edge="1">
          <mxGeometry relative="1" as="geometry">
            <mxPoint x="560" y="211" as="sourcePoint" />
            <mxPoint x="640" y="211" as="targetPoint" />
          </mxGeometry>
        </mxCell>
        <mxCell id="B4CApN_U5xcei9GQMjOe-16" value="" style="edgeStyle=orthogonalEdgeStyle;rounded=1;orthogonalLoop=1;jettySize=auto;html=1;startArrow=none;startFill=0;exitX=0;exitY=0;exitDx=0;exitDy=0;entryX=1;entryY=0;entryDx=0;entryDy=0;sketch=1;" parent="1" source="B4CApN_U5xcei9GQMjOe-4" target="B4CApN_U5xcei9GQMjOe-2" edge="1">
          <mxGeometry relative="1" as="geometry">
            <mxPoint x="570" y="221" as="sourcePoint" />
            <mxPoint x="650" y="221" as="targetPoint" />
          </mxGeometry>
        </mxCell>
        <mxCell id="8knhEFaTSSo58ldM-tiL-2" value="" style="edgeStyle=orthogonalEdgeStyle;rounded=1;orthogonalLoop=1;jettySize=auto;html=1;startArrow=none;startFill=0;exitX=1;exitY=0;exitDx=0;exitDy=0;sketch=1;" edge="1" parent="1" source="B4CApN_U5xcei9GQMjOe-8" target="B4CApN_U5xcei9GQMjOe-4">
          <mxGeometry relative="1" as="geometry">
            <mxPoint x="635" y="580" as="sourcePoint" />
            <mxPoint x="791" y="579" as="targetPoint" />
          </mxGeometry>
        </mxCell>
        <mxCell id="8knhEFaTSSo58ldM-tiL-3" value="" style="edgeStyle=orthogonalEdgeStyle;rounded=1;orthogonalLoop=1;jettySize=auto;html=1;startArrow=none;startFill=0;entryX=0;entryY=0;entryDx=0;entryDy=0;sketch=1;exitX=0.492;exitY=1.05;exitDx=0;exitDy=0;exitPerimeter=0;" edge="1" parent="1" source="B4CApN_U5xcei9GQMjOe-4" target="B4CApN_U5xcei9GQMjOe-8">
          <mxGeometry relative="1" as="geometry">
            <mxPoint x="462" y="569" as="sourcePoint" />
            <mxPoint x="159" y="653" as="targetPoint" />
          </mxGeometry>
        </mxCell>
        <mxCell id="B4CApN_U5xcei9GQMjOe-10" value="Optional" style="text;html=1;align=center;verticalAlign=middle;whiteSpace=wrap;rounded=1;sketch=1;fillColor=default;" parent="1" vertex="1">
          <mxGeometry x="541" y="513" width="100" height="60" as="geometry" />
        </mxCell>
      </root>
    </mxGraphModel>
  </diagram>
</mxfile>
